<?xml version="1.0" standalone="no"?>
<!DOCTYPE svg PUBLIC "-//W3C//DTD SVG 20010904//EN"
 "http://www.w3.org/TR/2001/REC-SVG-20010904/DTD/svg10.dtd">
<svg version="1.0" xmlns="http://www.w3.org/2000/svg"
 width="2996.000000pt" height="1916.000000pt" viewBox="0 0 2996.000000 1916.000000"
 preserveAspectRatio="xMidYMid meet">

<g transform="translate(0.000000,1916.000000) scale(0.100000,-0.100000)"
fill="#000000" stroke="none">
<path d="M2900 17190 c-8 -5 -26 -14 -40 -20 -14 -5 -32 -14 -40 -19 -8 -5
-35 -15 -60 -22 -25 -7 -62 -23 -83 -36 -21 -13 -50 -26 -66 -29 -16 -3 -50
-29 -80 -60 -29 -30 -58 -54 -66 -54 -7 0 -26 -15 -42 -34 -15 -19 -74 -82
-130 -141 -57 -60 -105 -117 -109 -128 -4 -11 -22 -41 -40 -67 -19 -26 -34
-55 -34 -63 0 -14 -20 -61 -51 -119 -5 -10 -9 -39 -9 -66 0 -26 -6 -54 -12
-61 -10 -9 -13 -250 -11 -1149 4 -1872 5 -1925 14 -1941 11 -21 30 -345 33
-576 3 -202 18 -395 36 -470 7 -27 17 -102 21 -165 14 -192 34 -394 41 -410
11 -23 28 -207 28 -282 -1 -36 4 -69 9 -73 6 -3 11 -33 11 -65 0 -32 4 -61 9
-64 4 -3 11 -33 15 -67 3 -34 10 -67 15 -73 5 -6 14 -59 20 -116 12 -130 30
-231 43 -247 5 -7 12 -41 15 -75 2 -35 8 -72 13 -83 5 -11 11 -47 15 -79 3
-33 10 -65 16 -72 6 -7 13 -38 16 -69 3 -30 10 -58 14 -61 5 -3 9 -27 9 -54 0
-27 4 -51 9 -55 5 -3 12 -19 16 -35 4 -17 13 -43 20 -58 7 -15 16 -61 20 -102
3 -41 15 -94 26 -117 24 -54 38 -117 39 -170 0 -23 5 -45 10 -48 6 -3 10 -17
10 -29 0 -13 7 -29 15 -36 8 -7 15 -19 15 -26 0 -8 4 -22 9 -32 17 -34 64
-178 68 -212 3 -19 9 -39 13 -45 4 -5 11 -29 15 -52 3 -22 13 -49 20 -60 8
-10 15 -28 15 -40 0 -12 4 -24 9 -27 4 -3 11 -24 15 -47 4 -23 18 -56 32 -74
18 -24 27 -51 31 -92 3 -32 14 -69 23 -83 26 -37 48 -94 55 -144 4 -27 16 -53
31 -67 14 -14 26 -39 30 -68 4 -25 17 -58 29 -72 12 -15 27 -49 34 -75 7 -27
18 -58 24 -69 32 -57 65 -124 72 -146 4 -13 16 -36 26 -50 10 -15 24 -51 30
-80 7 -34 21 -65 39 -84 15 -16 31 -41 35 -55 4 -14 17 -38 29 -55 12 -16 28
-46 36 -65 16 -43 58 -138 73 -165 6 -11 15 -29 21 -40 6 -11 21 -34 34 -52
12 -17 25 -45 28 -62 4 -17 13 -36 20 -42 8 -6 14 -16 14 -21 0 -5 8 -21 19
-36 52 -76 91 -142 91 -154 0 -8 11 -25 25 -38 14 -13 25 -34 25 -46 0 -12 15
-42 33 -66 18 -24 40 -59 50 -79 9 -20 23 -42 32 -49 8 -7 15 -17 15 -22 0 -6
14 -27 30 -48 17 -21 37 -56 46 -77 9 -21 28 -52 43 -70 49 -59 89 -118 96
-143 10 -34 39 -75 97 -137 26 -28 48 -58 49 -65 0 -7 15 -32 32 -55 18 -22
48 -62 67 -88 19 -25 54 -71 78 -101 23 -29 42 -58 42 -62 0 -5 27 -40 60 -77
33 -37 60 -73 60 -79 0 -6 32 -47 70 -91 39 -44 70 -84 70 -88 0 -5 33 -44 73
-88 39 -44 75 -88 78 -97 4 -9 23 -32 43 -50 20 -18 36 -39 36 -46 0 -8 25
-36 55 -61 30 -26 76 -77 102 -114 26 -36 91 -110 145 -164 54 -54 98 -102 98
-107 0 -5 22 -28 50 -52 27 -24 50 -49 50 -56 0 -19 217 -242 425 -437 99 -92
216 -203 260 -245 44 -42 113 -102 153 -134 39 -32 72 -64 72 -71 0 -12 139
-145 158 -153 4 -1 41 -34 82 -73 41 -39 103 -89 137 -111 34 -22 74 -56 88
-74 27 -35 126 -114 144 -114 5 0 35 -29 66 -65 32 -36 63 -65 70 -65 7 0 31
-17 53 -37 77 -70 139 -123 146 -123 4 0 20 -16 37 -35 17 -19 37 -35 45 -35
16 0 117 -75 153 -114 14 -14 28 -26 33 -26 5 0 43 -28 86 -63 42 -35 92 -72
111 -83 19 -10 48 -34 64 -52 16 -17 35 -32 41 -32 7 0 23 -11 35 -24 12 -13
35 -26 50 -29 15 -3 50 -22 79 -41 43 -30 63 -37 124 -42 40 -4 82 -12 93 -19
53 -32 95 -36 380 -40 160 -3 1976 -21 4037 -40 l3747 -36 58 24 c32 14 86 28
119 31 34 3 74 12 90 20 16 8 61 29 99 47 39 19 98 57 132 86 33 29 67 53 75
53 14 0 83 51 158 118 100 89 128 112 134 112 10 0 93 59 173 123 40 31 76 57
80 57 5 0 31 23 58 50 27 28 55 50 63 50 7 0 49 30 92 68 95 82 235 193 262
208 10 6 32 23 47 38 15 14 32 26 38 26 6 0 36 29 68 65 31 36 62 65 69 65 6
0 32 21 56 46 25 26 69 62 98 81 29 19 69 56 88 84 20 27 41 49 48 49 7 0 42
27 77 60 35 33 65 60 67 60 24 0 1022 989 1022 1013 0 7 58 71 129 140 121
119 132 127 168 127 21 0 43 4 48 9 6 5 46 15 90 21 44 7 89 16 100 20 11 5
56 11 100 14 44 3 97 12 117 21 21 8 55 15 77 15 22 0 42 4 45 9 3 5 43 12 88
16 86 8 184 29 202 44 6 5 47 12 91 16 50 4 108 17 155 35 41 16 111 36 155
45 82 16 138 32 165 45 9 4 45 11 80 15 36 4 79 15 96 24 16 10 61 24 100 30
38 7 95 26 126 42 38 19 86 33 140 41 55 8 95 19 118 35 20 12 58 26 85 30 27
3 60 12 75 20 14 7 30 13 36 13 6 0 17 7 24 15 7 8 25 15 41 15 16 0 37 4 47
9 9 5 26 13 37 17 11 4 49 17 85 30 36 13 75 24 88 24 13 0 40 11 60 25 20 14
41 25 47 25 5 0 21 6 35 13 14 8 41 17 59 20 18 4 44 15 57 26 14 11 43 22 66
26 23 4 60 17 82 29 23 12 64 30 91 40 28 10 57 24 65 31 17 13 61 30 101 39
14 3 52 21 84 41 33 19 63 35 68 35 6 0 31 13 56 28 25 16 61 34 80 40 18 7
55 25 80 41 26 16 63 32 82 36 19 4 51 20 71 36 20 16 41 29 46 29 12 0 74 30
92 45 8 7 33 18 55 26 22 7 54 23 72 36 17 13 36 23 42 23 6 0 28 15 48 33 21
18 56 39 78 46 22 7 51 24 65 37 14 12 41 30 60 39 67 31 95 48 135 80 22 17
58 40 80 50 22 11 60 36 84 57 24 21 49 38 56 38 6 0 24 13 39 29 16 16 40 32
54 36 14 3 51 28 81 54 31 26 72 56 91 67 19 10 67 45 105 77 124 102 149 122
190 149 22 15 60 48 85 73 24 25 49 45 55 45 6 0 24 14 41 31 16 17 43 38 59
46 27 14 130 108 228 208 143 147 176 179 212 204 22 16 69 60 104 97 35 38
94 101 131 139 37 39 69 75 71 82 2 6 48 59 102 117 53 59 97 111 97 116 0 6
32 47 71 93 40 45 90 107 113 137 22 30 60 78 83 106 24 28 43 57 43 65 0 8
14 32 30 53 17 22 30 45 30 51 0 6 12 22 26 36 15 13 35 42 45 65 10 22 28 49
39 59 12 10 28 35 37 54 9 20 29 54 44 77 15 22 31 52 34 67 4 14 18 35 31 48
13 12 24 26 24 31 0 17 39 95 54 107 8 7 18 26 21 42 4 16 11 31 16 34 5 4 9
15 9 27 0 11 13 36 30 54 16 19 33 47 36 62 10 39 61 149 73 157 6 3 11 16 11
28 0 12 14 49 30 82 16 33 30 67 30 76 0 8 4 19 9 25 4 5 14 30 21 56 7 26 19
53 26 59 8 6 14 20 14 30 0 10 4 20 9 23 4 3 11 28 14 56 4 28 13 65 22 82 8
17 15 39 15 49 0 10 5 21 10 24 5 3 10 21 10 40 0 19 5 37 10 40 6 3 10 17 10
31 0 14 11 44 23 67 18 32 25 65 30 137 4 52 12 99 17 104 6 6 10 22 10 37 0
15 4 30 9 33 4 3 11 38 15 78 4 40 14 134 22 208 20 177 39 1061 25 1110 -6
19 -13 100 -17 179 -3 80 -10 152 -14 160 -20 40 -39 135 -46 226 -6 94 -22
144 -64 200 -4 6 -11 36 -14 67 -7 52 -19 88 -46 140 -5 9 -12 39 -16 68 -4
28 -21 80 -39 115 -19 35 -36 78 -40 94 -4 17 -11 33 -16 36 -10 7 -34 57 -45
95 -3 14 -20 41 -35 61 -16 20 -29 47 -29 59 0 12 -14 38 -32 59 -33 40 -69
100 -111 186 -14 28 -32 57 -42 65 -9 8 -31 34 -48 59 -17 25 -52 73 -79 106
-26 33 -67 84 -90 113 -87 108 -223 255 -297 319 -42 36 -95 88 -119 114 -24
27 -48 49 -53 49 -5 0 -37 29 -72 63 -34 35 -74 70 -88 78 -15 8 -61 42 -104
77 -43 34 -82 62 -87 62 -6 0 -28 16 -51 35 -22 19 -50 35 -62 35 -12 0 -39
13 -61 30 -21 16 -47 30 -56 30 -10 0 -35 16 -56 35 -22 19 -65 44 -98 56 -32
12 -68 30 -79 39 -11 10 -35 20 -54 24 -18 3 -55 22 -81 41 -29 21 -59 35 -77
35 -17 0 -51 11 -76 24 -25 14 -68 29 -94 35 -93 19 -133 31 -165 51 -18 11
-43 20 -55 20 -12 0 -25 5 -28 10 -3 6 -21 10 -38 10 -41 0 -134 25 -153 41
-16 13 -104 25 -249 35 -49 4 -95 10 -101 15 -11 9 -248 31 -534 50 -192 13
-775 -2 -903 -22 -38 -6 -71 -8 -75 -4 -3 3 -9 32 -13 63 -27 224 -32 247 -70
328 -22 44 -39 84 -39 88 0 30 -318 416 -342 416 -5 0 -28 18 -52 40 -26 24
-53 40 -68 40 -13 0 -35 11 -48 25 -26 27 -74 55 -97 55 -12 0 -34 9 -73 32
-8 4 -22 11 -30 14 -8 3 -24 10 -35 14 -17 7 -10591 114 -12495 127 -921 6
-5858 52 -6235 58 -222 3 -345 2 -355 -5z m20910 -2671 c47 -5 128 -12 180
-15 52 -3 99 -9 105 -14 5 -4 34 -11 62 -15 29 -4 55 -11 59 -16 3 -5 23 -9
44 -9 21 0 42 -4 45 -10 3 -5 24 -10 45 -10 39 0 129 -30 188 -62 18 -10 50
-18 71 -18 27 0 44 -7 60 -24 16 -17 39 -27 74 -31 47 -7 117 -41 131 -64 4
-5 20 -13 38 -16 30 -7 81 -32 123 -61 11 -8 27 -14 36 -14 9 0 23 -7 30 -16
8 -9 32 -28 54 -42 22 -13 51 -34 65 -47 14 -12 41 -31 60 -41 45 -24 101 -71
225 -186 154 -143 259 -264 299 -344 14 -28 34 -58 46 -69 11 -10 20 -26 20
-35 0 -9 13 -34 29 -56 16 -22 32 -51 36 -66 4 -14 22 -41 41 -59 26 -25 34
-41 34 -67 0 -21 11 -50 28 -76 18 -26 32 -63 36 -96 5 -34 18 -69 37 -97 17
-24 33 -60 36 -81 2 -20 7 -44 10 -52 26 -65 47 -161 55 -245 5 -55 14 -108
19 -117 5 -10 9 -26 9 -36 0 -10 5 -23 11 -29 15 -15 32 -386 19 -432 -5 -20
-10 -74 -10 -119 0 -78 -8 -112 -41 -174 -5 -10 -9 -41 -10 -70 0 -99 -30
-272 -50 -293 -5 -5 -9 -21 -9 -36 0 -15 -4 -30 -9 -33 -4 -3 -11 -27 -15 -53
-5 -41 -26 -96 -67 -175 -5 -10 -9 -28 -9 -41 0 -25 -45 -145 -61 -162 -5 -5
-9 -19 -9 -30 0 -12 -20 -62 -45 -111 -25 -48 -45 -94 -45 -100 0 -6 -9 -19
-19 -28 -11 -10 -23 -32 -26 -50 -9 -44 -31 -89 -54 -110 -10 -10 -22 -29 -26
-44 -3 -14 -15 -38 -26 -53 -10 -15 -19 -31 -19 -37 0 -5 -7 -15 -15 -22 -8
-7 -15 -22 -15 -34 0 -13 -11 -33 -25 -46 -14 -13 -25 -29 -25 -36 0 -6 -7
-17 -15 -24 -8 -7 -15 -20 -15 -29 0 -10 -13 -30 -30 -46 -16 -16 -30 -34 -30
-42 0 -7 -13 -28 -30 -46 -16 -19 -30 -41 -30 -49 0 -8 -19 -32 -41 -53 -23
-22 -48 -53 -55 -70 -22 -46 -35 -66 -84 -121 -25 -28 -56 -68 -70 -89 -14
-21 -56 -68 -94 -104 -38 -36 -82 -86 -99 -111 -17 -25 -60 -75 -94 -112 -35
-37 -63 -72 -63 -78 0 -5 -5 -10 -11 -10 -16 0 -203 -178 -211 -201 -4 -11
-17 -19 -29 -19 -22 0 -82 -53 -204 -177 -28 -29 -56 -53 -62 -53 -6 0 -33
-18 -61 -40 -27 -22 -53 -40 -58 -40 -4 0 -17 -9 -28 -19 -12 -11 -35 -30 -53
-43 -58 -42 -187 -142 -221 -170 -18 -15 -40 -28 -49 -28 -9 0 -35 -18 -59
-40 -24 -22 -50 -40 -57 -40 -7 0 -24 -11 -37 -24 -12 -14 -41 -34 -64 -46
-60 -31 -86 -46 -99 -59 -6 -6 -17 -11 -25 -11 -8 0 -30 -14 -50 -31 -20 -17
-49 -37 -66 -44 -17 -8 -40 -23 -50 -34 -10 -11 -35 -24 -55 -27 -20 -4 -54
-19 -76 -33 -45 -29 -109 -65 -142 -80 -11 -5 -24 -15 -28 -20 -3 -6 -17 -11
-30 -11 -13 0 -27 -5 -30 -10 -7 -12 -122 -70 -138 -70 -6 0 -23 -11 -37 -25
-15 -15 -44 -28 -66 -32 -21 -3 -50 -15 -64 -27 -28 -25 -73 -46 -97 -46 -9 0
-38 -14 -65 -30 -27 -17 -64 -34 -81 -37 -18 -3 -39 -12 -48 -20 -25 -21 -87
-51 -122 -59 -17 -3 -47 -17 -67 -29 -19 -13 -57 -26 -85 -30 -30 -4 -61 -16
-78 -31 -16 -13 -37 -24 -47 -24 -10 0 -21 -4 -24 -9 -3 -4 -23 -11 -44 -15
-21 -3 -59 -16 -84 -30 -24 -13 -64 -27 -88 -31 -24 -4 -66 -21 -93 -37 -28
-16 -75 -34 -105 -38 -30 -5 -59 -13 -66 -18 -6 -6 -27 -13 -46 -17 -19 -4
-39 -11 -45 -15 -5 -4 -35 -11 -65 -15 -30 -4 -61 -11 -70 -15 -60 -28 -91
-41 -130 -55 -25 -8 -48 -15 -51 -15 -9 0 14 65 30 84 7 8 26 42 42 74 16 33
35 65 43 72 19 15 42 61 51 99 3 16 15 37 26 47 10 9 31 42 45 73 14 31 30 63
35 71 5 8 14 26 20 40 6 14 16 34 22 45 6 11 15 29 21 40 6 11 21 34 32 50 12
17 25 46 29 65 4 19 13 45 21 57 30 48 54 94 54 105 0 7 11 23 24 37 13 15 29
49 35 78 6 28 22 68 36 89 14 20 25 43 25 51 0 7 4 21 9 31 5 9 21 44 36 77
15 33 31 67 35 75 4 9 11 31 15 50 4 19 18 52 31 72 13 21 24 46 24 57 0 11 4
22 9 25 4 3 11 24 15 47 4 23 15 54 24 68 25 37 40 71 46 109 3 19 15 47 27
63 11 16 23 45 26 64 3 20 10 38 14 41 5 3 9 18 9 34 0 16 5 32 10 35 6 3 10
19 10 34 0 15 3 31 7 35 10 10 33 78 33 101 0 11 7 31 15 45 38 67 54 110 59
163 4 32 10 65 15 75 42 84 51 112 57 170 7 80 28 152 65 224 5 10 9 33 9 52
0 19 5 38 10 41 6 3 10 22 10 40 0 30 8 61 51 201 5 17 9 60 9 97 0 36 5 69
10 72 6 3 10 14 10 23 0 9 7 30 15 46 8 15 15 48 15 72 0 23 5 46 10 49 6 3
10 26 10 50 0 24 5 47 10 50 6 3 10 27 10 53 0 46 15 102 35 132 6 8 15 78 22
155 14 161 22 216 34 231 5 6 14 69 20 140 6 71 15 163 20 204 5 41 12 104 15
140 3 36 9 74 14 85 5 11 11 56 15 100 3 44 10 84 16 89 5 6 9 42 9 81 0 39 4
75 10 81 5 5 11 88 14 184 5 187 18 361 35 475 5 39 10 111 10 161 1 50 5 115
10 145 6 30 12 257 15 504 4 248 11 548 18 667 l11 217 46 6 c63 8 76 11 156
33 54 15 120 21 283 27 121 4 215 12 218 17 7 11 153 5 294 -13z"/>
</g>
</svg>
